# xmcd CD database file
#
# Track frame offsets:
#	150
#	20981
#	38284
#	55188
#	71409
#	90758
#	110267
#	124865
#	144783
#	162098
#	178219
#	196784
#	212705
#	229948
#	247737
#	263092
#	280163
#	296110
#	314869
#	334972
#
# Disc length: 4750 seconds
#
# Revision: 1
# Processed by: cddbd v1.5.2PL0 Copyright (c) Steve Scherf et al.
# Submitted via: CDex 1.51
#
DISCID=1e128c14
DTITLE=Various Artist - ZM-00sCD-2-
DYEAR=1900
DGENRE=Blues
TTITLE0=Enrique Iglesias - Hero
TTITLE1=Dj Otzi - Hey Baby
TTITLE2=Sugababes - Hole In The Head
TTITLE3=Madonna - Hung Up
TTITLE4=Scissor Sisters The - I Don't Feel Like Dancin'
TTITLE5=Black Eyed Peas The - I Gotta Feelin'
TTITLE6=Katy Perry - I Kissed A Girl
TTITLE7=Beyonce - If I Were A Boy
TTITLE8=Ronan Keatin - If Tomorrow Never Comes
TTITLE9=Tony Christie - Is This The Way To Amarillo
TTITLE10=Liberty X - Just A little
TTITLE11=Pixie Lott - Mama Do (uh oh uh oh)
TTITLE12=Killers The - Mr Brightside
TTITLE13=Sophie Ellis Bextor - Murder On The Dancefloor
TTITLE14=Mc Fly - Obviously
TTITLE15=Britney Spears - Oops I Did It Again
TTITLE16=Take That - Patience
TTITLE17=Lady Gaga - Poker Face
TTITLE18=Robbie Williams - Rock DJ
TTITLE19=Justin Timberlake - Rock Your Body
EXTD=
EXTT0=
EXTT1=
EXTT2=
EXTT3=
EXTT4=
EXTT5=
EXTT6=
EXTT7=
EXTT8=
EXTT9=
EXTT10=
EXTT11=
EXTT12=
EXTT13=
EXTT14=
EXTT15=
EXTT16=
EXTT17=
EXTT18=
EXTT19=
PLAYORDER=
